<svg width="32" height="32" viewBox="0 0 700 680" fill="none" xmlns="http://www.w3.org/2000/svg">
                        <rect x="1" width="699" height="679" rx="25" fill="white"/>
                        <rect y="65.4974" width="65.497" height="257.895" rx="32.7485" transform="rotate(-90 0 65.4974)" fill="#2C2C2C"/>
                        <rect x="442.104" y="65.4974" width="65.497" height="257.895" rx="32.7485" transform="rotate(-90 442.104 65.4974)" fill="#2C2C2C"/>
                        <rect y="679.532" width="65.497" height="257.895" rx="32.7485" transform="rotate(-90 0 679.532)" fill="#2C2C2C"/>
                        <rect x="442.104" y="679.532" width="65.497" height="257.895" rx="32.7485" transform="rotate(-90 442.104 679.532)" fill="#2C2C2C"/>
                        <rect width="65.497" height="245.614" rx="32.7485" fill="#2C2C2C"/>
                        <rect x="634.497" width="65.497" height="245.614" rx="32.7485" fill="#2C2C2C"/>
                        <rect x="511.693" y="372.515" width="65.497" height="184.21" rx="32.7485" fill="#2C2C2C"/>
                        <rect x="511.693" y="122.807" width="65.497" height="184.21" rx="32.7485" fill="#2C2C2C"/>
                        <rect x="384.802" y="372.515" width="61.4035" height="90.0584" rx="30.7017" fill="#2C2C2C"/>
                        <rect x="384.802" y="499.415" width="61.4035" height="61.4035" rx="30.7017" fill="#2C2C2C"/>
                        <rect x="384.802" y="372.515" width="94.152" height="61.4035" rx="30.7017" fill="#2C2C2C"/>
                        <rect x="478.943" y="495.321" width="98.2456" height="61.4035" rx="30.7017" fill="#2C2C2C"/>
                        <rect x="380.693" y="122.807" width="65.497" height="184.21" rx="32.7485" fill="#2C2C2C"/>
                        <rect x="126.911" y="122.807" width="65.497" height="433.918" rx="32.7485" fill="#2C2C2C"/>
                        <rect x="257.891" y="122.807" width="65.497" height="364.327" rx="32.7485" fill="#2C2C2C"/>
                        <rect x="380.693" y="188.304" width="65.497" height="196.491" rx="32.7485" transform="rotate(-90 380.693 188.304)" fill="#2C2C2C"/>
                        <rect x="126.911" y="180.117" width="57.3099" height="196.491" rx="28.655" transform="rotate(-90 126.911 180.117)" fill="#2C2C2C"/>
                        <rect x="126.911" y="307.017" width="65.497" height="196.491" rx="32.7485" transform="rotate(-90 126.911 307.017)" fill="#2C2C2C"/>
                        <rect x="126.911" y="433.918" width="61.4035" height="196.491" rx="30.7017" transform="rotate(-90 126.911 433.918)" fill="#2C2C2C"/>
                        <rect x="126.911" y="556.724" width="57.3099" height="196.491" rx="28.655" transform="rotate(-90 126.911 556.724)" fill="#2C2C2C"/>
                        <rect x="257.891" y="388.888" width="65.497" height="98.2456" fill="#2C2C2C"/>
                        <rect x="257.891" y="458.479" width="65.497" height="98.2456" rx="32.7485" fill="#2C2C2C"/>
                        <rect x="278.355" y="491.228" width="28.655" height="65.497" rx="1" fill="#D9D9D9"/>
                        <rect x="380.693" y="307.017" width="65.497" height="196.491" rx="32.7485" transform="rotate(-90 380.693 307.017)" fill="#2C2C2C"/>
                        <rect y="433.918" width="65.497" height="245.614" rx="32.7485" fill="#2C2C2C"/>
                        <rect x="634.497" y="433.918" width="65.497" height="245.614" rx="32.7485" fill="#2C2C2C"/>
                        <rect x="221.052" y="429.824" width="8.18713" height="73.6842" rx="4.09356" fill="#2C2C2C"/>
                        <rect x="221.052" y="302.923" width="8.18713" height="73.6842" rx="4.09356" fill="#2C2C2C"/>
                        <rect x="221.052" y="176.023" width="8.18713" height="73.6842" rx="4.09356" fill="#2C2C2C"/>
                        <rect x="290.642" y="36.8425" width="20.4678" height="98.2456" rx="10.2339" fill="#2C2C2C"/>
                        <rect x="188.303" y="470.76" width="8.18713" height="73.6842" rx="4.09356" transform="rotate(-90 188.303 470.76)" fill="#2C2C2C"/>
                        <rect x="188.303" y="343.86" width="8.18713" height="73.6842" rx="4.09356" transform="rotate(-90 188.303 343.86)" fill="#2C2C2C"/>
                        <rect x="188.303" y="216.958" width="8.18713" height="73.6842" rx="4.09356" transform="rotate(-90 188.303 216.958)" fill="#2C2C2C"/>
                        <rect x="298.837" y="523.977" width="12.2807" height="4.09356" rx="2.04678" fill="#2C2C2C"/>
                    </svg>